<svg width="28" height="28" viewBox="0 0 28 28" fill="none" xmlns="http://www.w3.org/2000/svg">
    <path d="M14 25.6667C7.55654 25.6667 2.33337 20.4435 2.33337 14C2.33337 7.55649 7.55654 2.33333 14 2.33333C20.4435 2.33333 25.6667 7.55649 25.6667 14C25.6667 20.4435 20.4435 25.6667 14 25.6667ZM14 23.3333C16.4754 23.3333 18.8494 22.35 20.5997 20.5997C22.35 18.8493 23.3334 16.4753 23.3334 14C23.3334 11.5246 22.35 9.15067 20.5997 7.40033C18.8494 5.64999 16.4754 4.66666 14 4.66666C11.5247 4.66666 9.15072 5.64999 7.40038 7.40033C5.65004 9.15067 4.66671 11.5246 4.66671 14C4.66671 16.4753 5.65004 18.8493 7.40038 20.5997C9.15072 22.35 11.5247 23.3333 14 23.3333ZM12.8334 9.33333C12.8334 8.689 13.3557 8.16666 14 8.16666C14.6444 8.16666 15.1667 8.689 15.1667 9.33333C15.1667 9.97766 14.6444 10.5 14 10.5C13.3557 10.5 12.8334 9.97766 12.8334 9.33333ZM12.8334 14C12.8334 13.3557 13.3557 12.8333 14 12.8333C14.6444 12.8333 15.1667 13.3557 15.1667 14V18.6667C15.1667 19.311 14.6444 19.8333 14 19.8333C13.3557 19.8333 12.8334 19.311 12.8334 18.6667V14Z" fill="white"/>
</svg>
