<svg width="24" height="24" viewBox="0 0 24 24" fill="none" xmlns="http://www.w3.org/2000/svg">
    <path d="M12 23.6667C10.4056 23.6667 8.89865 23.3602 7.47921 22.7473C6.05976 22.1352 4.82037 21.2991 3.76104 20.239C2.70093 19.1797 1.86482 17.9403 1.25271 16.5208C0.639819 15.1014 0.333374 13.5944 0.333374 12C0.333374 10.3861 0.639819 8.87449 1.25271 7.46516C1.86482 6.05505 2.70093 4.82033 3.76104 3.761C4.82037 2.70088 6.05976 1.86438 7.47921 1.25149C8.89865 0.639384 10.4056 0.333328 12 0.333328C13.6139 0.333328 15.1255 0.639384 16.5349 1.25149C17.945 1.86438 19.1797 2.70088 20.239 3.761C21.2992 4.82033 22.1353 6.05505 22.7474 7.46516C23.3603 8.87449 23.6667 10.3861 23.6667 12C23.6667 13.5944 23.3603 15.1014 22.7474 16.5208C22.1353 17.9403 21.2992 19.1797 20.239 20.239C19.1797 21.2991 17.945 22.1352 16.5349 22.7473C15.1255 23.3602 13.6139 23.6667 12 23.6667ZM12 21.275C12.5056 20.575 12.9431 19.8458 13.3125 19.0875C13.682 18.3292 13.9834 17.5222 14.2167 16.6667H9.78337C10.0167 17.5222 10.3181 18.3292 10.6875 19.0875C11.057 19.8458 11.4945 20.575 12 21.275ZM8.96671 20.8083C8.61671 20.1667 8.31065 19.5005 8.04854 18.8098C7.78565 18.1199 7.56671 17.4056 7.39171 16.6667H3.95004C4.51393 17.6389 5.2186 18.4847 6.06404 19.2042C6.91026 19.9236 7.87782 20.4583 8.96671 20.8083ZM15.0334 20.8083C16.1223 20.4583 17.0894 19.9236 17.9349 19.2042C18.7811 18.4847 19.4862 17.6389 20.05 16.6667H16.6084C16.4334 17.4056 16.2148 18.1199 15.9527 18.8098C15.6898 19.5005 15.3834 20.1667 15.0334 20.8083ZM2.95837 14.3333H6.92504C6.86671 13.9444 6.82276 13.5602 6.79321 13.1807C6.76443 12.8019 6.75004 12.4083 6.75004 12C6.75004 11.5917 6.76443 11.1981 6.79321 10.8193C6.82276 10.4398 6.86671 10.0556 6.92504 9.66666H2.95837C2.86115 10.0556 2.78804 10.4398 2.73904 10.8193C2.69082 11.1981 2.66671 11.5917 2.66671 12C2.66671 12.4083 2.69082 12.8019 2.73904 13.1807C2.78804 13.5602 2.86115 13.9444 2.95837 14.3333ZM9.25837 14.3333H14.7417C14.8 13.9444 14.844 13.5602 14.8735 13.1807C14.9023 12.8019 14.9167 12.4083 14.9167 12C14.9167 11.5917 14.9023 11.1981 14.8735 10.8193C14.844 10.4398 14.8 10.0556 14.7417 9.66666H9.25837C9.20004 10.0556 9.15648 10.4398 9.12771 10.8193C9.09815 11.1981 9.08337 11.5917 9.08337 12C9.08337 12.4083 9.09815 12.8019 9.12771 13.1807C9.15648 13.5602 9.20004 13.9444 9.25837 14.3333ZM17.075 14.3333H21.0417C21.1389 13.9444 21.212 13.5602 21.261 13.1807C21.3093 12.8019 21.3334 12.4083 21.3334 12C21.3334 11.5917 21.3093 11.1981 21.261 10.8193C21.212 10.4398 21.1389 10.0556 21.0417 9.66666H17.075C17.1334 10.0556 17.1769 10.4398 17.2057 10.8193C17.2353 11.1981 17.25 11.5917 17.25 12C17.25 12.4083 17.2353 12.8019 17.2057 13.1807C17.1769 13.5602 17.1334 13.9444 17.075 14.3333ZM16.6084 7.33333H20.05C19.4862 6.36111 18.7811 5.51527 17.9349 4.79583C17.0894 4.07638 16.1223 3.54166 15.0334 3.19166C15.3834 3.83333 15.6898 4.49911 15.9527 5.18899C16.2148 5.87966 16.4334 6.59444 16.6084 7.33333ZM9.78337 7.33333H14.2167C13.9834 6.47777 13.682 5.67083 13.3125 4.9125C12.9431 4.15416 12.5056 3.42499 12 2.725C11.4945 3.42499 11.057 4.15416 10.6875 4.9125C10.3181 5.67083 10.0167 6.47777 9.78337 7.33333ZM3.95004 7.33333H7.39171C7.56671 6.59444 7.78565 5.87966 8.04854 5.18899C8.31065 4.49911 8.61671 3.83333 8.96671 3.19166C7.87782 3.54166 6.91026 4.07638 6.06404 4.79583C5.2186 5.51527 4.51393 6.36111 3.95004 7.33333Z" fill="white"/>
</svg>
