<svg width="32" height="32" viewBox="0 0 32 32" fill="none" xmlns="http://www.w3.org/2000/svg">
<path fill-rule="evenodd" clip-rule="evenodd" d="M22.0709 27.814C24.7799 27.814 27.7189 28.741 30.9729 31.618C31.2989 31.906 31.7329 31.548 31.4479 31.19C28.2509 27.161 25.2939 26.394 22.3449 25.746C18.7369 24.952 16.8819 22.926 15.5889 20.702C15.3319 20.26 15.2159 20.338 15.1929 20.907C15.1639 21.602 15.2129 22.523 15.3689 23.429C15.2229 23.435 15.0769 23.434 14.9289 23.434C9.76895 23.434 5.58495 19.258 5.58495 14.107C5.58495 8.957 9.76895 4.782 14.9299 4.782C20.0899 4.782 24.2739 8.957 24.2739 14.107C24.2739 14.474 24.2559 14.837 24.2139 15.192C23.5319 15.069 22.1889 15.055 21.2469 15.136C20.8929 15.167 20.9429 15.332 21.2109 15.38C24.2999 15.937 26.4209 17.848 26.9069 21.315C26.9169 21.395 27.0229 21.418 27.0639 21.349C28.3774 19.162 29.0693 16.6581 29.0649 14.107C29.0649 6.317 22.7359 0 14.9299 0C7.12295 0 0.793945 6.316 0.793945 14.107C0.793945 21.899 7.12295 28.216 14.9299 28.216C16.9999 28.216 19.0559 27.814 22.0709 27.814ZM23.1229 22.692C23.7519 23.222 23.9429 23.853 23.6109 24.298C23.4259 24.542 23.1259 24.677 22.7659 24.677C22.4148 24.6771 22.0747 24.5539 21.8049 24.329C21.2329 23.83 21.0649 23.022 21.4379 22.563C21.5839 22.383 21.8209 22.284 22.1049 22.284C22.4499 22.284 22.8119 22.429 23.1229 22.692ZM26.0249 21.344C26.1169 21.962 25.9219 22.218 25.7249 22.218C25.5099 22.218 25.2409 21.968 24.9239 21.473C24.6099 20.985 24.4949 20.425 24.6509 20.142C24.7529 19.955 24.9679 19.873 25.2389 19.976C25.7639 20.173 25.9689 20.975 26.0249 21.344Z" fill="#526EFF"/>
</svg>
