<svg width="59" height="24" viewBox="0 0 59 24" fill="none" xmlns="http://www.w3.org/2000/svg">
<path d="M31.5097 13.0592V16.875H29.3126V4.625H33.4047C37.2876 4.625 38.9376 6.00826 38.9376 8.77226C38.9376 11.6239 37.0043 13.0592 33.4047 13.0592H31.5097ZM31.5097 6.63836V11.0486H33.5642C35.6018 11.0486 36.6552 10.3829 36.6552 8.7202C36.6552 7.21641 35.7421 6.63836 33.5971 6.63836H31.5097Z" fill="#5531E8"/>
<path d="M39.6415 8.95989C40.2379 8.49445 41.3205 8.125 42.8752 8.125C45.5125 8.125 46.8126 9.05298 46.8126 11.4701V17.6016H44.8255V15.9292C44.3931 17.0084 43.2906 17.75 41.8462 17.75C40.0231 17.75 38.9376 16.6914 38.9376 14.8703C38.9376 12.7528 40.4357 12.1564 42.6576 12.1564H44.6983V11.7465C44.6983 10.4258 44.085 10.0185 42.8752 10.0185C41.2131 10.0185 40.2577 10.6876 39.6415 11.6738V8.95989ZM44.6983 14.3324V13.5702H42.9119C41.6653 13.5702 41.069 13.8117 41.069 14.6492C41.069 15.3561 41.5749 15.8012 42.5134 15.8012C43.9407 15.7983 44.6079 14.9634 44.6983 14.3324Z" fill="#5531E8"/>
<path d="M47.6876 8.125H49.9628L52.3411 14.1267L54.2848 8.125H56.4376L52.9637 17.8028C52.1998 19.9038 51.417 20.375 50.2726 20.375C49.7345 20.375 49.1445 20.2188 48.8836 19.9887V18.0822C49.1445 18.3452 49.544 18.5205 49.9247 18.5205C50.5498 18.5205 51.0175 18.1014 51.3491 16.9099L47.6876 8.125Z" fill="#5531E8"/>
<path d="M9.18756 8.96414V11.8514L12.798 14.25L21.4376 7.49857C21.1323 6.78332 20.7492 6.11517 20.2996 5.5L12.798 11.3628L9.18756 8.96414Z" fill="#5531E8"/>
<path d="M20.0923 11.425C20.0949 11.4898 20.0949 11.5574 20.0949 11.6222C20.0949 15.7037 16.7731 19.0219 12.6932 19.0219C8.61323 19.0219 5.28854 15.7037 5.28854 11.6222C5.28854 7.54071 8.61037 4.22244 12.6903 4.22244C14.2372 4.22244 15.6741 4.69852 16.8632 5.51547L18.7341 4.13511C17.083 2.80005 14.9781 2 12.6874 2C7.3706 2 3.06256 6.30965 3.06256 11.625C3.06256 16.9403 7.37346 21.25 12.6874 21.25C18.0043 21.25 22.3126 16.9403 22.3126 11.625C22.3126 11.0362 22.259 10.4587 22.1575 9.90119L20.0923 11.425Z" fill="#5531E8"/>
</svg>
